<svg xmlns="http://www.w3.org/2000/svg" width="45.927" height="45.926" viewBox="0 0 45.927 45.926"><defs><style>.a{fill:#fff;}</style></defs><g transform="translate(0 0.708)"><g transform="translate(0 -0.708)"><path class="a" d="M593.546,165.963c-.2,0-.406,0-.61-.008a22.963,22.963,0,0,1-13.721-40.912,1.788,1.788,0,1,1,2.23,2.795,19.393,19.393,0,1,0,12.585-4.218,19.1,19.1,0,0,0-8.34,1.643,1.788,1.788,0,1,1-1.45-3.269,22.965,22.965,0,1,1,9.306,43.969Zm.139-17.726-.305,0a11.427,11.427,0,0,1-10.31-6.882,1.788,1.788,0,0,1,3.3-1.379,8.033,8.033,0,0,0,14.608,0,1.788,1.788,0,0,1,3.308,1.356A11.419,11.419,0,0,1,593.685,148.238Z" transform="translate(-570.565 -120.038)"/></g><g transform="translate(15.556 10.837)"><path class="a" d="M587.1,130.991a2.786,2.786,0,1,1-2.758-2.815,2.787,2.787,0,0,1,2.758,2.815" transform="translate(-581.53 -128.176)"/></g><g transform="translate(24.95 10.837)"><path class="a" d="M593.724,130.991a2.786,2.786,0,1,1-2.758-2.815,2.787,2.787,0,0,1,2.758,2.815" transform="translate(-588.152 -128.176)"/></g></g></svg>