<svg xmlns="http://www.w3.org/2000/svg" width="35.931" height="46.367" viewBox="0 0 35.931 46.367"><defs><style>.a{fill:#fff;}</style></defs><g transform="translate(0 0)"><path class="a" d="M637.088,166.405H613.741a6.3,6.3,0,0,1-6.291-6.292v-6.454a1.76,1.76,0,0,1,3.52,0v6.454a2.775,2.775,0,0,0,2.771,2.773h23.347a2.776,2.776,0,0,0,2.774-2.773V126.329a2.777,2.777,0,0,0-2.774-2.773H613.741a2.775,2.775,0,0,0-2.771,2.773v20.976a1.76,1.76,0,1,1-3.52,0V126.329a6.3,6.3,0,0,1,6.291-6.291h23.347a6.3,6.3,0,0,1,6.292,6.291v33.784A6.3,6.3,0,0,1,637.088,166.405Z" transform="translate(-607.45 -120.038)"/></g><g transform="translate(8.418 19.629)"><path class="a" d="M614.579,141.7a1.76,1.76,0,0,1-1.76-1.76v-3.432a1.76,1.76,0,0,1,1.76-1.76H618.4a1.76,1.76,0,0,1,0,3.52h-2.059v1.672A1.76,1.76,0,0,1,614.579,141.7Z" transform="translate(-612.819 -134.749)"/><g transform="translate(5.192 5.041)"><path class="a" d="M623.488,147.068H618.3a1.76,1.76,0,0,1-1.76-1.76v-5.19a1.76,1.76,0,0,1,1.76-1.76h5.192a1.758,1.758,0,0,1,1.758,1.76v5.19A1.758,1.758,0,0,1,623.488,147.068Zm-3.432-3.52h1.672v-1.672h-1.672Z" transform="translate(-616.536 -138.358)"/></g><g transform="translate(11.755 12.061)"><path class="a" d="M626.815,150.336h-3.82a1.76,1.76,0,1,1,0-3.52h2.062v-1.672a1.759,1.759,0,1,1,3.518,0v3.432A1.759,1.759,0,0,1,626.815,150.336Z" transform="translate(-621.235 -143.384)"/></g><g transform="translate(0 12.061)"><path class="a" d="M618.4,150.336h-3.819a1.76,1.76,0,0,1-1.76-1.76v-3.432a1.76,1.76,0,1,1,3.52,0v1.672H618.4a1.76,1.76,0,1,1,0,3.52Z" transform="translate(-612.819 -143.384)"/></g><g transform="translate(11.755)"><path class="a" d="M626.815,141.7a1.758,1.758,0,0,1-1.758-1.76v-1.672h-2.062a1.76,1.76,0,1,1,0-3.52h3.82a1.759,1.759,0,0,1,1.76,1.76v3.432A1.759,1.759,0,0,1,626.815,141.7Z" transform="translate(-621.235 -134.749)"/></g></g><g transform="translate(8.435 7.604)"><g transform="translate(14.87)"><path class="a" d="M625.91,129h-.675a1.76,1.76,0,0,1,0-3.52h.675a1.76,1.76,0,1,1,0,3.52Z" transform="translate(-623.477 -125.482)"/></g><path class="a" d="M624.474,129h-9.883a1.76,1.76,0,1,1,0-3.52h9.883a1.76,1.76,0,1,1,0,3.52Z" transform="translate(-612.831 -125.482)"/><g transform="translate(0 5.556)"><path class="a" d="M622.361,132.978h-7.77a1.759,1.759,0,1,1,0-3.518h7.77a1.759,1.759,0,1,1,0,3.518Z" transform="translate(-612.831 -129.46)"/></g></g></svg>