<svg xmlns="http://www.w3.org/2000/svg" width="586.336" height="442.347" viewBox="0 0 586.336 442.347"><defs><style>.a,.b{fill:none;stroke-width:1.5px;}.a{stroke:#0fd9e7;}.b{stroke:#ff763b;}</style></defs><g transform="translate(0.297 -580.969)"><path class="a" d="M760.205,806.633c-25.763-55.567-49.52-120.945-69.4-204.537C650.2,431.362,518.519,365.352,397.188,365.352A420.377,420.377,0,0,0,354,367.6" transform="translate(-353.998 216.367)"/><path class="a" d="M354,612.234c44.67-19.3,97.593-29.57,159.823-29.575" transform="translate(-353.998 213.71)"/><path class="b" d="M939.35,809.287c-40.742-92.693-128.857-167.508-248.07-204.262-36.781-11.341-98.884-20.432-173.925-22.26A1181.381,1181.381,0,0,0,354,590.24" transform="translate(-353.998 213.712)"/></g></svg>