<?xml version="1.0" encoding="utf-8"?>
<!-- Generator: Adobe Illustrator 25.4.1, SVG Export Plug-In . SVG Version: 6.00 Build 0)  -->
<svg version="1.1" id="Layer_1" xmlns="http://www.w3.org/2000/svg" xmlns:xlink="http://www.w3.org/1999/xlink" width="200" height="260" viewBox="0 0 110 190" xml:space="preserve">
	<style type="text/css">
	.st0{fill:#60D5E3;}
	.st1{fill:#EE7D4B;}
</style>
	<g id="Layer_2_00000050636609048968451490000016349530693060266637_">
		<g id="Layer_1-2">
			<path class="st0" d="M33.5,170.2c4.4-3,8.8-5.9,13.2-8.7c0-0.6,0.1-1.3,0.2-1.9c-4.7,3-9.5,6.2-14.2,9.4
			C21,176.8,10.1,185.6,0,195.4v2.1C10.3,187.4,21.5,178.2,33.5,170.2z" />
			<path class="st0" d="M48.6,158.5L48.6,158.5l-0.2,1.9c19.3-12.4,38.4-23.3,57-34c14.5-8.3,29.4-16.9,44.5-26.1l1.4-2.6
			c-15.8,9.7-31.4,18.7-46.6,27.4C86.4,135.6,67.6,146.4,48.6,158.5z" />
			<path class="st1" d="M48.4,160.4L48.4,160.4l0.2-1.9l0,0c4.3-43.6,20.2-82.2,46.8-112.8c15.7-18,34.7-32.9,55.9-44V0
			c-21.6,11.2-41,26.4-57,44.7C67.2,75.8,51.1,115.1,47,159.5l0,0c-0.1,0.6-0.1,1.2-0.2,1.9c-0.6,6.8-0.9,13.7-0.9,20.7
			c0,5.5,0.1,10.9,0.2,16.3h1.5c-0.1-5.4-0.2-10.8-0.2-16.3C47.4,174.8,47.7,167.5,48.4,160.4z" />
		</g>
	</g>
</svg>
