<svg xmlns="http://www.w3.org/2000/svg" width="97.607" height="344.174" viewBox="0 0 97.607 344.174"><defs><style>.a{fill:#60d5e3;}.b{fill:#ee7d4b;}</style></defs><g transform="translate(-781.996 -1661.106)"><path class="a" d="M845.11,1899.731c-.245.586-.488,1.172-.738,1.758q3.839,6.852,7.6,13.93c15.618,29.493,24.391,59.715,26.128,89.861H879.6c-1.738-30.392-10.571-60.851-26.306-90.564Q849.256,1907.084,845.11,1899.731Z"/><path class="a" d="M843.438,1899.83c.246-.585.495-1.168.736-1.753-11.12-19.66-22.653-38-33.89-55.852-9.323-14.815-18.947-30.121-28.288-46.091v2.973c8.944,15.192,18.117,29.779,27.015,43.92C820.43,1861.172,832.158,1879.814,843.438,1899.83Z"/><path class="b" d="M857.239,1776.119C846.98,1731.83,820.972,1692.1,782,1661.106v1.924c38.186,30.671,63.679,69.829,73.778,113.428,9.146,39.486,5.109,81.118-11.6,121.619-.241.585-.49,1.168-.736,1.753q-4.161,9.861-9.312,19.618c-11.785,22.254-24.285,42.619-36.2,61.637q.507.6,1.026,1.2c12.007-19.153,24.615-39.676,36.505-62.129q4.912-9.274,8.917-18.662c.25-.586.493-1.172.738-1.758C862.316,1858.6,866.539,1816.267,857.239,1776.119Z"/></g></svg>